<?xml version="1.0" encoding="utf-8"?>
<!-- Generator: Adobe Illustrator 19.0.1, SVG Export Plug-In . SVG Version: 6.00 Build 0)  -->
<svg version="1.1" id="Слой_1" xmlns="http://www.w3.org/2000/svg" xmlns:xlink="http://www.w3.org/1999/xlink" x="0px" y="0px"
	 viewBox="-177 396.2 240 49.4" style="enable-background:new -177 396.2 240 49.4;" xml:space="preserve">
<style type="text/css">
	.st0{fill:#FFFFFF;}
	.st1{fill:url(#_133595792_1_);}
</style>
<g id="Layer_x0020_1">
	<rect x="-177" y="391.9" class="st0" width="240" height="57.9"/>
	<g id="_133596176">
		
			<linearGradient id="_133595792_1_" gradientUnits="userSpaceOnUse" x1="-351.5802" y1="835.7242" x2="-350.7932" y2="836.1419" gradientTransform="matrix(72 0 0 -72 25134 60608.0703)">
			<stop  offset="0" style="stop-color:#00A9DD"/>
			<stop  offset="0.3608" style="stop-color:#00B2AA"/>
			<stop  offset="1" style="stop-color:#00BA78"/>
		</linearGradient>
		<path id="_133595792" class="st1" d="M-126.7,420.9c0-13.6-11.1-24.7-24.7-24.7c-13.6,0-24.7,11.1-24.7,24.7s11.1,24.7,24.7,24.7
			C-137.8,445.6-126.7,434.5-126.7,420.9z M-137.8,413.7l-4.1,18.4c-0.1,0.6-0.7,1.1-1.3,1.1h-2.7c-0.6,0-1.1-0.4-1.3-1l-3-10.4
			c-0.2-0.6-0.7-1-1.3-1c-0.6,0-1.1,0.4-1.3,1l-2.9,10.4c-0.2,0.6-0.7,1-1.3,1h-2.6c-0.6,0-1.2-0.4-1.3-1.1l-3.8-16.7
			c-0.1-0.4,0-0.8,0.3-1.1c0.3-0.3,0.6-0.5,1.1-0.5h2c0.6,0,1.2,0.4,1.3,1.1l1,4.4c0.1,0.6,0.7,1,1.3,1.1c0.6,0,1.2-0.4,1.3-1
			l2.8-9.9c0.2-0.6,0.7-1,1.3-1h1.9c0.6,0,1.1,0.4,1.3,1l2.8,10c0.2,0.6,0.7,1,1.3,1c0.6,0,1.1-0.4,1.3-1.1l2.2-10l0.3-1.4
			c0.1-0.6-0.1-1.1-0.6-1.4c-2.8-1.9-6.1-2.9-9.7-2.9c-9.6,0-17.4,7.8-17.4,17.4c0,9.6,7.8,17.4,17.4,17.4c5.5,0,10.4-2.6,13.6-6.6
			c0.2-0.3,0.6-0.5,1-0.5c0.4,0,0.7,0.1,1,0.4l1.5,1.5c0.5,0.5,0.5,1.3,0.1,1.8c-4.1,5-10.3,8.1-17.2,8.1
			c-12.3,0-22.2-9.9-22.2-22.2c0-12.3,9.9-22.2,22.2-22.2c4.2,0,8.2,1.2,11.6,3.2c1.2,0.8,2.4,1.6,3.5,2.6c0.4,0.3,0.5,0.8,0.4,1.3
			l-1.1,5.1l-0.1,0.5L-137.8,413.7L-137.8,413.7z"/>
		<path id="_133595864" d="M-118.3,413.9h3.6l3,8.4l3.2-8.4h2.2l3.1,8.3l3-8.3h3.6l-5.4,14.7h-2.3l-3.1-8.4l-3.2,8.4h-2.3
			L-118.3,413.9L-118.3,413.9z M-64.3,422.3h-11.9c0.2,1,0.6,1.9,1.4,2.5c0.7,0.6,1.7,0.9,2.8,0.9c1.4,0,2.6-0.5,3.6-1.4l3.1,1.5
			c-0.8,1.1-1.7,1.9-2.8,2.4c-1.1,0.5-2.4,0.8-3.9,0.8c-2.3,0-4.2-0.7-5.6-2.2c-1.5-1.5-2.2-3.3-2.2-5.5c0-2.2,0.7-4.1,2.2-5.6
			c1.4-1.5,3.3-2.2,5.4-2.2c2.3,0,4.2,0.7,5.7,2.2c1.4,1.5,2.2,3.4,2.2,5.9L-64.3,422.3L-64.3,422.3z M-68,419.4
			c-0.2-0.8-0.7-1.5-1.4-2c-0.7-0.5-1.6-0.8-2.5-0.8c-1,0-1.9,0.3-2.7,0.9c-0.5,0.4-0.9,1-1.4,1.9H-68L-68,419.4z M-88.8,413.9h3.2
			v1.9c0.3-0.7,0.8-1.3,1.4-1.7c0.6-0.4,1.2-0.6,1.9-0.6c0.5,0,1,0.1,1.5,0.4L-82,417c-0.4-0.2-0.8-0.3-1.1-0.3
			c-0.6,0-1,0.4-1.4,1.1c-0.4,0.7-0.6,2.1-0.6,4.1l0,0.7v6h-3.7V413.9L-88.8,413.9z M-93.1,407.8c0.6,0,1.2,0.2,1.7,0.7
			c0.5,0.5,0.7,1,0.7,1.7c0,0.7-0.2,1.2-0.7,1.7c-0.5,0.5-1,0.7-1.6,0.7c-0.7,0-1.2-0.2-1.7-0.7c-0.5-0.5-0.7-1-0.7-1.7
			c0-0.7,0.2-1.2,0.7-1.7C-94.3,408-93.7,407.8-93.1,407.8z M-94.9,413.9h3.7v14.7h-3.7V413.9z"/>
		<path id="_133596056" d="M-46.2,416.9l-1.5,0.9c-1.3-1.7-3.1-2.6-5.3-2.6c-1.8,0-3.3,0.6-4.5,1.7c-1.2,1.2-1.8,2.6-1.8,4.2
			c0,1.1,0.3,2.1,0.8,3c0.5,0.9,1.3,1.7,2.2,2.2c1,0.5,2,0.8,3.2,0.8c2.2,0,3.9-0.9,5.3-2.6l1.5,1c-0.7,1.1-1.6,1.9-2.8,2.5
			c-1.2,0.6-2.5,0.9-4,0.9c-2.3,0-4.3-0.7-5.8-2.2c-1.5-1.5-2.3-3.3-2.3-5.4c0-1.4,0.4-2.8,1.1-4c0.7-1.2,1.7-2.2,3-2.9
			c1.3-0.7,2.7-1,4.2-1c1,0,1.9,0.2,2.8,0.4c0.9,0.3,1.7,0.7,2.3,1.2C-47.2,415.6-46.7,416.2-46.2,416.9z M60.1,423.7l1.6,0.8
			c-0.5,1-1.1,1.9-1.8,2.5c-0.7,0.6-1.5,1.1-2.3,1.4c-0.9,0.3-1.8,0.5-2.9,0.5c-2.4,0-4.3-0.8-5.6-2.4c-1.4-1.6-2-3.4-2-5.3
			c0-1.9,0.6-3.5,1.7-5c1.4-1.9,3.4-2.8,5.8-2.8c2.5,0,4.5,1,6,2.9c1.1,1.3,1.6,3,1.6,5H48.9c0,1.7,0.6,3.1,1.6,4.2
			c1.1,1.1,2.4,1.6,3.9,1.6c0.7,0,1.5-0.1,2.2-0.4c0.7-0.3,1.3-0.6,1.8-1C59,425.4,59.5,424.7,60.1,423.7z M60.1,419.7
			c-0.3-1-0.6-1.8-1.1-2.4c-0.5-0.6-1.1-1.1-1.9-1.5c-0.8-0.4-1.6-0.6-2.5-0.6c-1.4,0-2.7,0.5-3.7,1.4c-0.8,0.7-1.3,1.7-1.7,3H60.1
			L60.1,419.7z M38.6,413.9h1.9v2.2c0.6-0.8,1.2-1.5,1.8-1.9c0.6-0.4,1.3-0.6,2-0.6c0.5,0,1.1,0.2,1.7,0.5l-1,1.6
			c-0.4-0.2-0.7-0.3-1-0.3c-0.6,0-1.2,0.3-1.8,0.8c-0.6,0.5-1,1.3-1.3,2.4c-0.2,0.8-0.4,2.5-0.4,5.1v5h-1.9L38.6,413.9L38.6,413.9z
			 M35.1,413.9v14.7h-1.9v-2.5c-0.8,1-1.7,1.7-2.7,2.2c-1,0.5-2.1,0.7-3.2,0.7c-2.1,0-3.9-0.8-5.3-2.3c-1.5-1.5-2.2-3.3-2.2-5.5
			c0-2.1,0.7-3.9,2.2-5.4c1.5-1.5,3.3-2.3,5.4-2.3c1.2,0,2.3,0.3,3.3,0.8c1,0.5,1.8,1.3,2.6,2.3v-2.7H35.1z M27.5,415.3
			c-1.1,0-2,0.3-2.9,0.8c-0.9,0.5-1.6,1.2-2.1,2.2c-0.5,0.9-0.8,1.9-0.8,3c0,1,0.3,2,0.8,3c0.5,0.9,1.2,1.7,2.1,2.2
			c0.9,0.5,1.9,0.8,2.9,0.8c1,0,2-0.3,2.9-0.8c0.9-0.5,1.6-1.2,2.1-2.1c0.5-0.9,0.8-1.9,0.8-3c0-1.7-0.6-3.1-1.7-4.3
			C30.5,415.9,29.2,415.3,27.5,415.3L27.5,415.3z M1.6,413.9h1.9v2.7c0.7-1,1.6-1.8,2.6-2.3c1-0.5,2.1-0.8,3.3-0.8
			c2.1,0,3.9,0.8,5.4,2.3c1.5,1.5,2.2,3.3,2.2,5.4c0,2.2-0.7,4-2.2,5.5c-1.5,1.5-3.2,2.3-5.3,2.3c-1.2,0-2.2-0.2-3.2-0.7
			c-1-0.5-1.9-1.2-2.7-2.2v7.9H1.6L1.6,413.9L1.6,413.9z M9.1,415.3c-1.6,0-3,0.6-4.1,1.7c-1.1,1.1-1.7,2.6-1.7,4.3
			c0,1.1,0.2,2.1,0.7,3c0.5,0.9,1.2,1.6,2.2,2.1c0.9,0.5,1.9,0.8,3,0.8c1,0,2-0.3,2.9-0.8c0.9-0.5,1.6-1.3,2.1-2.2
			c0.5-0.9,0.8-1.9,0.8-3c0-1-0.3-2-0.8-3c-0.5-0.9-1.2-1.7-2.1-2.2C11.2,415.6,10.2,415.3,9.1,415.3L9.1,415.3z M-24.5,413.9h1.9
			v2.5c0.7-0.9,1.3-1.6,2-2.1c1-0.6,2-0.9,3-0.9c0.7,0,1.4,0.1,2,0.4c0.6,0.3,1.2,0.7,1.6,1.1c0.4,0.5,0.8,1.1,1.1,2
			c0.6-1.2,1.4-2,2.4-2.6c0.9-0.6,2-0.9,3.1-0.9c1,0,1.9,0.3,2.7,0.8c0.8,0.5,1.4,1.2,1.7,2.2c0.4,0.9,0.6,2.3,0.6,4.1v8h-1.9v-8
			c0-1.6-0.1-2.7-0.3-3.3c-0.2-0.6-0.6-1.1-1.2-1.4c-0.5-0.4-1.2-0.5-2-0.5c-0.9,0-1.8,0.3-2.5,0.8c-0.8,0.5-1.3,1.3-1.7,2.2
			c-0.4,0.9-0.5,2.4-0.5,4.5v5.8h-1.9v-7.5c0-1.8-0.1-3-0.3-3.6c-0.2-0.6-0.6-1.1-1.2-1.5c-0.5-0.4-1.2-0.6-2-0.6
			c-0.9,0-1.7,0.3-2.5,0.8c-0.8,0.5-1.3,1.2-1.7,2.1c-0.4,0.9-0.5,2.3-0.5,4.1v6.2h-1.9L-24.5,413.9L-24.5,413.9z M-35.6,413.5
			c2.3,0,4.1,0.8,5.6,2.5c1.4,1.5,2,3.3,2,5.3c0,2.1-0.7,3.9-2.1,5.4c-1.4,1.5-3.3,2.3-5.5,2.3c-2.3,0-4.1-0.8-5.5-2.3
			c-1.4-1.5-2.1-3.3-2.1-5.4c0-2,0.7-3.8,2-5.3C-39.8,414.3-37.9,413.5-35.6,413.5L-35.6,413.5z M-35.6,415.3c-1.6,0-2.9,0.6-4,1.7
			c-1.1,1.2-1.7,2.6-1.7,4.2c0,1.1,0.3,2.1,0.8,3c0.5,0.9,1.2,1.6,2.1,2.1c0.9,0.5,1.8,0.7,2.9,0.7c1,0,2-0.2,2.9-0.7
			c0.9-0.5,1.6-1.2,2.1-2.1c0.5-0.9,0.8-1.9,0.8-3c0-1.7-0.6-3.1-1.7-4.2C-32.7,415.9-34.1,415.3-35.6,415.3z"/>
	</g>
</g>
</svg>
